<svg data-v-423bf9ae="" xmlns="http://www.w3.org/2000/svg" viewBox="0 0 198.81720455835818 163" class="iconAbove"><!----><!----><!----><g data-v-423bf9ae="" id="0c549a54-3507-44c5-8e43-1a8d27d8bad2" fill="black" transform="matrix(5.376344159530915,0,0,5.376344159530915,-5.537633656720345,87.94623923228187)"><path d="M1.03 13.78L1.03 2.80L4.40 2.80Q5.49 2.80 6.28 3.24Q7.07 3.67 7.49 4.48Q7.90 5.28 7.90 6.37L7.90 6.37Q7.90 7.46 7.44 8.26Q6.99 9.06 6.16 9.48Q5.33 9.90 4.26 9.90L4.26 9.90L3.42 9.90L3.42 13.78L1.03 13.78ZM3.42 8.13L4.16 8.13Q4.84 8.13 5.20 7.66Q5.56 7.19 5.56 6.37L5.56 6.37Q5.56 5.57 5.20 5.13Q4.85 4.70 4.18 4.70L4.18 4.70L3.42 4.70L3.42 8.13ZM9.01 13.78L9.01 5.63L10.97 5.63L11.10 6.90L11.18 6.90Q11.32 6.47 11.57 6.16Q11.83 5.84 12.13 5.68Q12.43 5.51 12.71 5.51L12.71 5.51Q13.17 5.51 13.38 5.64L13.38 5.64L13.38 7.81Q13.04 7.72 12.77 7.72L12.77 7.72Q12.10 7.72 11.72 8.23Q11.34 8.74 11.34 9.84L11.34 9.84L11.34 13.78L9.01 13.78ZM17.30 12.13Q17.71 12.13 17.99 11.93Q18.28 11.74 18.46 11.33L18.46 11.33L20.12 11.83Q19.74 12.99 18.99 13.47Q18.25 13.95 17.19 13.95L17.19 13.95Q16.15 13.95 15.35 13.47Q14.55 12.98 14.10 12.03Q13.65 11.09 13.65 9.75L13.65 9.75Q13.65 7.75 14.48 6.61Q15.31 5.48 16.98 5.48L16.98 5.48Q18.59 5.48 19.38 6.48Q20.17 7.49 20.17 9.25L20.17 9.25Q20.17 9.88 20.10 10.26L20.10 10.26L15.89 10.26Q15.89 10.82 16.06 11.25Q16.24 11.67 16.56 11.90Q16.88 12.13 17.30 12.13L17.30 12.13ZM17.08 7.21Q15.98 7.21 15.93 8.82L15.93 8.82L18.23 8.82Q18.20 8.05 17.95 7.63Q17.71 7.21 17.08 7.21L17.08 7.21ZM24.42 13.96Q23.26 13.96 22.50 13.39Q21.75 12.82 21.39 11.87Q21.03 10.92 21.03 9.73L21.03 9.73Q21.03 8.51 21.38 7.55Q21.74 6.60 22.50 6.04Q23.26 5.48 24.42 5.48L24.42 5.48Q25.76 5.48 26.51 6.16Q27.25 6.85 27.56 8.26L27.56 8.26L25.66 8.68Q25.57 7.94 25.30 7.57Q25.03 7.20 24.56 7.20L24.56 7.20Q23.88 7.20 23.60 7.88Q23.31 8.55 23.31 9.75L23.31 9.75Q23.31 10.91 23.60 11.56Q23.88 12.22 24.56 12.22L24.56 12.22Q25.02 12.22 25.29 11.84Q25.55 11.47 25.66 10.74L25.66 10.74L27.46 11.09Q27.23 12.58 26.48 13.27Q25.73 13.96 24.42 13.96L24.42 13.96ZM28.57 4.60L28.57 2.80L30.88 2.80L30.88 4.60L28.57 4.60ZM28.55 13.78L28.55 5.63L30.88 5.63L30.88 13.78L28.55 13.78ZM35.25 13.95Q33.98 13.95 33.07 13.32Q32.15 12.69 31.80 11.44L31.80 11.44L33.48 10.79Q33.67 11.49 34.07 11.86Q34.46 12.22 34.97 12.22L34.97 12.22Q35.31 12.22 35.54 12.03Q35.77 11.85 35.77 11.48L35.77 11.48Q35.77 11.20 35.60 11.00Q35.44 10.79 35.18 10.65Q34.93 10.50 34.47 10.29L34.47 10.29Q34.25 10.19 34.15 10.14L34.15 10.14Q33.57 9.87 33.18 9.59Q32.79 9.32 32.52 8.88Q32.26 8.44 32.26 7.81L32.26 7.81Q32.26 7.03 32.65 6.50Q33.04 5.97 33.65 5.72Q34.27 5.47 34.95 5.47L34.95 5.47Q37.47 5.47 37.93 7.62L37.93 7.62L36.34 8.07Q36.19 7.57 35.88 7.26Q35.57 6.95 35.17 6.95L35.17 6.95Q34.79 6.95 34.56 7.12Q34.34 7.30 34.34 7.68L34.34 7.68Q34.34 7.94 34.51 8.15Q34.69 8.35 34.96 8.50Q35.23 8.65 35.72 8.87L35.72 8.87Q35.96 8.98 36.01 9.00L36.01 9.00Q36.62 9.29 37.05 9.60Q37.47 9.91 37.74 10.37Q38.01 10.84 38.01 11.50L38.01 11.50Q38.01 12.28 37.65 12.83Q37.28 13.38 36.65 13.67Q36.03 13.95 35.25 13.95L35.25 13.95Z"></path></g><!----><g data-v-423bf9ae="" id="39b48e07-3601-4109-9ddf-20fd456ef506" transform="matrix(2.8125,0,0,2.8125,55,0)" stroke="none" fill="black"><path d="M15.965 16.258l.707-.707 10.39 10.39-.707.707z"></path><path d="M4.935 26.357L26.018 5.274l.707.707L5.642 27.065z"></path><path d="M31 1v4.194h-4.194V1H31m1-1h-6.194v6.194H32V0zM31 26.806V31h-4.194v-4.194H31m1-1h-6.194V32H32v-6.194zM5.194 26.806V31H1v-4.194h4.194m1-1H0V32h6.194v-6.194z"></path></g><!----></svg>